<?xml version="1.0" encoding="utf-8"?>
<!-- Generator: Adobe Illustrator 22.1.0, SVG Export Plug-In . SVG Version: 6.00 Build 0)  -->
<svg version="1.1" id="Layer_1" xmlns="http://www.w3.org/2000/svg" xmlns:xlink="http://www.w3.org/1999/xlink" x="0px" y="0px"
	 viewBox="0 0 497.2 497.2" style="enable-background:new 0 0 497.2 497.2;" xml:space="preserve">
<g>
	<g>
		<g>
			<path style="fill:#ff5f24;" d="M0.6,0v400h144v-16h-128V80h464v304h-128v16h144V0H0.6z M480.6,64h-464V16h464V64z"/>
			<rect style="fill:#ff5f24;" x="96.6" y="32" width="16" height="16"/>
			<rect style="fill:#ff5f24;" x="32.6" y="32" width="48" height="16"/>
			<path style="fill:#ff5f24;" d="M368.6,288c52.9,0,96-43.1,96-96s-43.1-96-96-96h-1.1c-27,0-52.9,11.5-71,31.4l-47.9,52.7l-47.9-52.7
				c-18.2-20-44-31.4-71-31.4h-1.1c-52.9,0-96,43.1-96,96s43.1,96,96,96h1.1c27,0,52.9-11.5,71-31.4l47.9-52.7l47.9,52.7
				c18.2,20,44,31.4,71,31.4H368.6z M188.9,245.8c-15.1,16.6-36.7,26.2-59.2,26.2h-1.1c-44.1,0-80-35.9-80-80s35.9-80,80-80h1.1
				c22.5,0,44.1,9.5,59.2,26.2l48.9,53.8L188.9,245.8z M308.3,245.8L259.4,192l48.9-53.8c15.1-16.6,36.7-26.2,59.2-26.2h1.1
				c44.1,0,80,35.9,80,80s-35.9,80-80,80h-1.1C345,272,323.5,262.5,308.3,245.8z"/>
			<polygon style="fill:#ff5f24;" points="336.6,304 320.6,304 320.6,432 330.5,432 248.6,478.8 166.7,432 176.6,432 176.6,320 160.6,320 160.6,416 
				106.5,416 248.6,497.2 390.7,416 336.6,416 			"/>
			<rect style="fill:#ff5f24;" x="192.6" y="304" width="16" height="128"/>
			<rect style="fill:#ff5f24;" x="192.6" y="272" width="16" height="16"/>
			<rect style="fill:#ff5f24;" x="224.6" y="288" width="16" height="160"/>
			<rect style="fill:#ff5f24;" x="224.6" y="256" width="16" height="16"/>
			<rect style="fill:#ff5f24;" x="256.6" y="272" width="16" height="16"/>
			<rect style="fill:#ff5f24;" x="256.6" y="240" width="16" height="16"/>
			<rect style="fill:#ff5f24;" x="288.6" y="320" width="16" height="112"/>
			<rect style="fill:#ff5f24;" x="288.6" y="288" width="16" height="16"/>
			<rect style="fill:#ff5f24;" x="256.6" y="304" width="16" height="144"/>
			<rect style="fill:#ff5f24;" x="288.6" y="184" width="16" height="16"/>
			<rect style="fill:#ff5f24;" x="304.6" y="168" width="16" height="16"/>
			<rect style="fill:#ff5f24;" x="304.6" y="200" width="16" height="16"/>
			<rect style="fill:#ff5f24;" x="192.6" y="184" width="16" height="16"/>
			<rect style="fill:#ff5f24;" x="176.6" y="168" width="16" height="16"/>
			<rect style="fill:#ff5f24;" x="176.6" y="200" width="16" height="16"/>
		</g>
	</g>
</g>
</svg>
