<?xml version="1.0" encoding="utf-8"?>
<!-- Generator: Adobe Illustrator 22.1.0, SVG Export Plug-In . SVG Version: 6.00 Build 0)  -->
<svg version="1.1" id="Capa_1" xmlns="http://www.w3.org/2000/svg" xmlns:xlink="http://www.w3.org/1999/xlink" x="0px" y="0px"
	 viewBox="0 0 500.7 500.7" style="enable-background:new 0 0 500.7 500.7;" xml:space="preserve">
<g>
	<g>
		<g>
			<path style="fill:#ff5f24;" d="M250.4,320.4c60.2-1.2,120,10.4,175.5,34c16.8-29.9,25.7-63.7,25.7-98C451.1,172,398.3,96.7,319,67.6l21,27.9
				c2.1,2.8,2.4,6.5,0.9,9.6c-1.5,3.1-4.7,5.1-8.2,5.1h-36.6v64c0,5-4.1,9.1-9.1,9.1c-5,0-9.1-4.1-9.1-9.1V101c0-5,4.1-9.1,9.1-9.1
				h27.4l-64-85.3l-64,85.3h27.4c5,0,9.1,4.1,9.1,9.1v73.1c0,5-4.1,9.1-9.1,9.1s-9.1-4.1-9.1-9.1v-64h-36.6c-3.5,0-6.6-2-8.2-5.1
				s-1.2-6.8,0.9-9.6l21-27.9C102.4,96.7,49.6,172,49.2,256.4c0,34.3,8.9,68.1,25.7,98C130.3,330.9,190.1,319.3,250.4,320.4z
				 M403.1,290.3c-0.9,0.8-1.9,1.5-3,1.9c-2.2,1-4.7,1-6.9,0c-1.1-0.5-2.1-1.1-3-1.9c-1.7-1.8-2.6-4.1-2.7-6.5
				c0-0.6,0.1-1.2,0.2-1.8c0.1-0.6,0.3-1.1,0.5-1.6c0.2-0.6,0.5-1.1,0.8-1.6c0.4-0.5,0.7-1,1.1-1.5c0.9-0.8,1.9-1.5,3-1.9
				c2.2-0.9,4.7-0.9,6.9,0c1.1,0.5,2.1,1.1,3,1.9c0.4,0.5,0.7,0.9,1.1,1.5c0.4,0.5,0.6,1,0.8,1.6c0.3,0.5,0.4,1.1,0.5,1.6
				c0.1,0.6,0.2,1.2,0.2,1.8C405.7,286.2,404.8,288.6,403.1,290.3z M403,222.7c3.5,3.5,3.6,9.2,0.1,12.8l-54.9,54.9
				c-3.6,3.5-9.3,3.4-12.8-0.1c-3.5-3.5-3.6-9.2-0.1-12.8l54.9-54.9C393.8,219.1,399.5,219.2,403,222.7z M332.8,227.2L332.8,227.2
				c0.1-0.5,0.3-1.1,0.5-1.6c0.2-0.6,0.5-1.1,0.8-1.6c0.4-0.5,0.7-1,1.1-1.5c0.9-0.8,1.9-1.5,3-1.9c2.2-0.9,4.7-0.9,6.9,0
				c1.1,0.5,2.1,1.1,3,1.9c0.4,0.5,0.7,0.9,1.1,1.5c0.4,0.5,0.6,1,0.8,1.6c0.3,0.5,0.4,1.1,0.5,1.6c0.1,0.6,0.2,1.2,0.2,1.8
				c0,2.4-1,4.7-2.7,6.5c-0.9,0.8-1.9,1.5-3,1.9c-2.2,1-4.7,1-6.9,0c-1.1-0.5-2.1-1.1-3-1.9c-1.7-1.8-2.6-4.1-2.7-6.5
				C332.7,228.4,332.7,227.8,332.8,227.2z M250.4,229c0-10.1,8.2-18.3,18.3-18.3h27.4c10.1,0,18.3,8.2,18.3,18.3v54.9
				c0,10.1-8.2,18.3-18.3,18.3h-27.4c-10.1,0-18.3-8.2-18.3-18.3L250.4,229L250.4,229z M177.2,229c0-10.1,8.2-18.3,18.3-18.3h27.4
				c10.1,0,18.3,8.2,18.3,18.3v54.9c0,10.1-8.2,18.3-18.3,18.3h-27.4c-10.1,0-18.3-8.2-18.3-18.3V229z M126.4,237.2
				c-2.9,1.5-6.4,1.2-9.1-0.6s-4.3-4.9-4.1-8.2s2.1-6.2,5-7.6l18.3-9.1c2.8-1.4,6.2-1.3,8.9,0.4c2.7,1.7,4.3,4.6,4.3,7.8v64h9.1
				c5,0,9.1,4.1,9.1,9.1s-4.1,9.1-9.1,9.1h-36.6c-5,0-9.1-4.1-9.1-9.1s4.1-9.1,9.1-9.1h9.1v-49.2L126.4,237.2z"/>
			<path style="fill:#ff5f24;" d="M451.5,449.8v-60.7c-15.6-10.4-83.2-50.5-201.1-50.5c-118.3,0-185.6,40-201.1,50.4v60.7c27.8-16.3,94.5-47.1,201.1-47.1
				S423.7,433.6,451.5,449.8z"/>
			<rect style="fill:#ff5f24;" x="268.6" y="229" width="27.4" height="54.9"/>
			<path style="fill:#ff5f24;" d="M34.7,474c-0.8-0.6-1.4-1.2-2-2c-0.1-0.1-0.2-0.2-0.3-0.3c-0.6-0.9-1-1.9-1.2-2.9c-0.1-0.3-0.1-0.6-0.1-0.8
				c-0.1-0.4-0.1-0.8-0.2-1.2v-27.4H0l11.7,23.3c1.3,2.6,1.3,5.6,0,8.2L0,494.2h64.8L35,474.3C34.9,474.2,34.8,474.1,34.7,474z"/>
			<rect style="fill:#ff5f24;" x="195.5" y="229" width="27.4" height="54.9"/>
			<path style="fill:#ff5f24;" d="M414.9,452.1v34.1l29.1-19.4C434.6,461.3,424.9,456.4,414.9,452.1z"/>
			<path style="fill:#ff5f24;" d="M85.8,486.2v-34.1c-10,4.3-19.7,9.2-29.1,14.7L85.8,486.2z"/>
			<path style="fill:#ff5f24;" d="M489,462.6l11.7-23.3h-30.9v27.4c0,0.4-0.1,0.8-0.2,1.2c0,0.3-0.1,0.6-0.1,0.8c-0.2,1-0.6,2-1.2,2.9
				c-0.1,0.1-0.2,0.2-0.3,0.3c-0.6,0.8-1.2,1.4-2,2c-0.1,0.1-0.2,0.2-0.3,0.3L436,494.2h64.7L489,470.8
				C487.7,468.2,487.7,465.2,489,462.6z"/>
			<path style="fill:#ff5f24;" d="M151.3,431.4c61.4,34.9,136.6,34.9,198,0c-32.5-7-65.7-10.5-99-10.4C217.1,420.9,183.8,424.4,151.3,431.4z"/>
		</g>
	</g>
</g>
</svg>
