<?xml version="1.0" encoding="utf-8"?>
<!-- Generator: Adobe Illustrator 22.1.0, SVG Export Plug-In . SVG Version: 6.00 Build 0)  -->
<svg version="1.1" id="Capa_1" xmlns="http://www.w3.org/2000/svg" xmlns:xlink="http://www.w3.org/1999/xlink" x="0px" y="0px"
	 viewBox="0 0 512 512" style="enable-background:new 0 0 512 512;" xml:space="preserve">
<g>
	<g>
		<polygon style="fill:#ff5f24;" points="411.1,99.3 411.1,348.6 411.1,378.6 381.1,378.6 180.4,378.6 180.4,428.6 371.6,428.6 461.5,492.8 461.5,428.6 
			512,428.6 512,99.3 		"/>
	</g>
</g>
<g>
	<g>
		<path style="fill:#ff5f24;" d="M190.5,134.8c-27,0-49.1,22-49.1,49.1s22,49.1,49.1,49.1s49.1-22,49.1-49.1S217.6,134.8,190.5,134.8z"/>
	</g>
</g>
<g>
	<g>
		<path style="fill:#ff5f24;" d="M0,19.2v329.4h50.5v64.1l89.9-64.1h240.7v0V19.2H0z M290.2,198.9h-22c-2.1,10.7-6.2,20.6-12.1,29.3l15.6,15.6l-21.2,21.2
			l-15.6-15.6c-8.7,5.9-18.6,10.1-29.3,12.1v22h-30v-22c-10.7-2.1-20.6-6.2-29.3-12.1l-15.6,15.6l-21.2-21.2l15.6-15.6
			c-5.9-8.7-10.1-18.6-12.1-29.3h-22v-30h22c2.1-10.7,6.2-20.6,12.1-29.3l-15.6-15.6l21.2-21.2l15.6,15.6
			c8.7-5.9,18.6-10.1,29.3-12.1v-22h30v22c10.7,2.1,20.6,6.2,29.3,12.1l15.6-15.6l21.2,21.2L256,139.6c5.9,8.7,10.1,18.6,12.1,29.3
			h22L290.2,198.9L290.2,198.9z"/>
	</g>
</g>
</svg>
