<?xml version="1.0" encoding="utf-8"?>
<!-- Generator: Adobe Illustrator 22.1.0, SVG Export Plug-In . SVG Version: 6.00 Build 0)  -->
<svg version="1.1" id="Слой_1" xmlns="http://www.w3.org/2000/svg" xmlns:xlink="http://www.w3.org/1999/xlink" x="0px" y="0px"
	 viewBox="0 0 297 297" style="enable-background:new 0 0 297 297;" xml:space="preserve">
<g>
	<path style="fill:#ff5f24;" d="M148.5,116.2c32,0,58.1-26.1,58.1-58.1S180.5,0,148.5,0S90.4,26.1,90.4,58.1S116.5,116.2,148.5,116.2z M120.4,51.9
		c3.4-3.4,9-3.4,12.4,0l8.4,8.4l23-23c3.4-3.4,9-3.4,12.4,0c3.4,3.4,3.4,9,0,12.4l-29.2,29.2c-1.7,1.7-4,2.6-6.2,2.6
		s-4.5-0.9-6.2-2.6l-14.6-14.6C117,60.9,117,55.3,120.4,51.9z"/>
	<path style="fill:#ff5f24;" d="M34.2,84.9c18.8,0,34.2-15.3,34.2-34.2S53,16.5,34.2,16.5S0,31.9,0,50.7S15.3,84.9,34.2,84.9z"/>
	<path style="fill:#ff5f24;" d="M3.4,133.8v71c0,16.3,13.2,29.5,29.5,29.5h38.5v52.4c0,4,3.2,7.2,7.2,7.2h34.1c4,0,7.2-3.2,7.2-7.2v-75.6
		c0-13.8-11.2-24.9-24.9-24.9H65v-52.4c0-17-13.8-30.8-30.8-30.8C17.2,103,3.4,116.8,3.4,133.8z"/>
	<path style="fill:#ff5f24;" d="M262.8,84.9c18.8,0,34.2-15.3,34.2-34.2s-15.3-34.2-34.2-34.2s-34.2,15.3-34.2,34.2S244,84.9,262.8,84.9z"/>
	<path style="fill:#ff5f24;" d="M232,133.8v52.4h-30c-13.8,0-24.9,11.2-24.9,24.9v75.6c0,4,3.2,7.2,7.2,7.2h34.1c4,0,7.2-3.2,7.2-7.2v-52.4h38.5
		c16.3,0,29.5-13.2,29.5-29.5v-71c0-17-13.8-30.8-30.8-30.8C245.8,103,232,116.8,232,133.8L232,133.8z"/>
	<path style="fill:#ff5f24;" d="M199.6,151.8c4.8,0,8.8-3.9,8.8-8.8c0-4.8-3.9-8.8-8.8-8.8H97.4c-4.8,0-8.8,3.9-8.8,8.8c0,4.8,3.9,8.8,8.8,8.8h42.3v136.4
		c0,4.8,3.9,8.8,8.8,8.8s8.8-3.9,8.8-8.8V151.8H199.6z"/>
</g>
</svg>
