<?xml version="1.0" encoding="utf-8"?>
<!-- Generator: Adobe Illustrator 22.1.0, SVG Export Plug-In . SVG Version: 6.00 Build 0)  -->
<svg version="1.1" id="Capa_1" xmlns="http://www.w3.org/2000/svg" xmlns:xlink="http://www.w3.org/1999/xlink" x="0px" y="0px"
	 viewBox="0 0 512 512" style="enable-background:new 0 0 512 512;" xml:space="preserve">
<g>
	<g>
		<path style="fill:#ff5f24;" d="M256,18.1c-8.3,0-15,6.7-15,15v45c0,8.3,6.7,15,15,15c8.3,0,15-6.7,15-15v-45C271,24.8,264.3,18.1,256,18.1z"/>
	</g>
</g>
<g>
	<g>
		<path style="fill:#ff5f24;" d="M176.6,112.5l-30-30c-5.9-5.9-15.4-5.9-21.2,0s-5.9,15.4,0,21.2l30,30c5.9,5.9,15.4,5.9,21.2,0
			C182.5,127.9,182.5,118.4,176.6,112.5z"/>
	</g>
</g>
<g>
	<g>
		<path style="fill:#ff5f24;" d="M386.6,82.5c-5.9-5.9-15.4-5.9-21.2,0l-30,30c-5.9,5.9-5.9,15.4,0,21.2c5.9,5.9,15.4,5.9,21.2,0l30-30
			C392.5,97.9,392.5,88.4,386.6,82.5z"/>
	</g>
</g>
<g>
	<g>
		<path style="fill:#ff5f24;" d="M497,228.1h-46v210h46c8.3,0,15-6.7,15-15v-180C512,234.8,505.3,228.1,497,228.1z"/>
	</g>
</g>
<g>
	<g>
		<path style="fill:#ff5f24;" d="M15,228.1c-8.3,0-15,6.7-15,15v180c0,8.3,6.7,15,15,15h46v-210H15z"/>
	</g>
</g>
<g>
	<g>
		<path style="fill:#ff5f24;" d="M244.5,243.1c-11.4,0-21.7,6.4-26.8,16.6L172.1,351c7.6,3.4,15.7,5.1,24,5.1c22.8,0,43.4-12.7,53.6-33.2l9.9-19.7h29
			c7.9,0,15.6,3.2,21.2,8.8L421,423.1v-180H244.5z"/>
	</g>
</g>
<g>
	<g>
		<path style="fill:#ff5f24;" d="M288.6,333.1h-10.5l-0.9,1.7c-14.2,28.3-41.8,48.3-73.4,50.9c-23.2,1.9-39.3-4.8-58.4-13.5c-7.8-3.5-11.1-12.8-7.3-20.4
			l52.8-105.6c10.2-20.3,30.9-33.2,53.7-33.2h64.7c4.2-9.2,6.7-19.2,6.7-30c0-8.3-6.7-15-15-15H184.5c-17,0-32.6,9.6-40.3,24.9
			l-13.4,26.8c-2.5,5.1-7.7,8.3-13.4,8.3H91v210h68.8l42.5,42.5c12.3,12.3,30.1,16.2,45.4,11.1l128.1-40.3
			c7.7-2.2,14.1-6.4,19.4-11.8L288.6,333.1z"/>
	</g>
</g>
</svg>
