<?xml version="1.0" encoding="utf-8"?>
<!-- Generator: Adobe Illustrator 22.1.0, SVG Export Plug-In . SVG Version: 6.00 Build 0)  -->
<svg version="1.1" id="Capa_1" xmlns="http://www.w3.org/2000/svg" xmlns:xlink="http://www.w3.org/1999/xlink" x="0px" y="0px"
	 viewBox="0 0 47 47" style="enable-background:new 0 0 47 47;" xml:space="preserve">
<g>
	<g id="Layer_1_80_">
		<g>
			<path style="fill:#ff5f24;" d="M36.9,37.9H10.1c-1.2,0-2.1,1-2.1,2.1s1,2.1,2.1,2.1h26.7c1.2,0,2.1-1,2.1-2.1S38,37.9,36.9,37.9z"/>
			<path style="fill:#ff5f24;" d="M7.5,21.9v5.3c0,0.9,0.7,1.6,1.6,1.6c0.9,0,1.6-0.7,1.6-1.6v-5.3c0-0.9-0.7-1.6-1.6-1.6C8.2,20.3,7.5,21,7.5,21.9z"/>
			<path style="fill:#ff5f24;" d="M12.8,19.8v7.5c0,0.9,0.7,1.6,1.6,1.6c0.9,0,1.6-0.7,1.6-1.6v-7.5c0-0.9-0.7-1.6-1.6-1.6C13.5,18.2,12.8,18.9,12.8,19.8z
				"/>
			<path style="fill:#ff5f24;" d="M18.2,17.6v9.6c0,0.9,0.7,1.6,1.6,1.6c0.9,0,1.6-0.7,1.6-1.6v-9.6c0-0.9-0.7-1.6-1.6-1.6C18.9,16,18.2,16.7,18.2,17.6z"
				/> 
			<path style="fill:#ff5f24;" d="M44.9,4.8H2.1C1,4.8,0,5.8,0,6.9v26.7c0,1.2,1,2.1,2.1,2.1h40.8c-0.1-0.1-0.1-0.1-0.2-0.2l-3-3c-1.7,1-3.6,1.5-5.6,1.5
				c-2.7,0-5.3-0.9-7.3-2.6H4.3V9.1h38.5v6c1.9,2.1,2.9,4.8,2.9,7.6c0,2-0.5,3.9-1.5,5.6l2.9,2.9V6.9C47,5.8,46,4.8,44.9,4.8z"/>
			<path style="fill:#ff5f24;" d="M42.4,29.6c-0.2-0.2-0.5-0.3-0.8-0.3l-0.4-0.4c1.5-1.7,2.3-3.9,2.3-6.2c0-2.5-1-4.8-2.7-6.6c-1.8-1.8-4.1-2.7-6.6-2.7
				c-2.5,0-4.8,1-6.6,2.7c-1.8,1.8-2.7,4.1-2.7,6.6s1,4.8,2.7,6.6c1.8,1.8,4.1,2.7,6.6,2.7c2.3,0,4.4-0.8,6.2-2.3l0.5,0.4
				c0,0.3,0.1,0.6,0.3,0.8l3.2,3.2c0.2,0.2,0.4,0.3,0.7,0.3c0.2,0,0.5-0.1,0.7-0.3c0.4-0.4,0.4-1,0-1.4L42.4,29.6z M39.4,27.9
				c-1.4,1.4-3.3,2.2-5.2,2.2c-2,0-3.8-0.8-5.2-2.2c-1.4-1.4-2.2-3.3-2.2-5.2c0-2,0.8-3.8,2.2-5.2c1.4-1.4,3.3-2.2,5.2-2.2
				c2,0,3.8,0.8,5.2,2.2c1.4,1.4,2.2,3.3,2.2,5.2C41.6,24.7,40.8,26.5,39.4,27.9z"/>
		</g>
	</g>
</g>
</svg>
