<?xml version="1.0" encoding="utf-8"?>
<!-- Generator: Adobe Illustrator 22.1.0, SVG Export Plug-In . SVG Version: 6.00 Build 0)  -->
<svg version="1.1" id="Слой_1" xmlns="http://www.w3.org/2000/svg" xmlns:xlink="http://www.w3.org/1999/xlink" x="0px" y="0px"
	 viewBox="0 0 2000 2000" style="enable-background:new 0 0 2000 2000;" xml:space="preserve">
<style type="text/css">
	.st0{fill:#4D4D4D;}
</style>
<g id="AbhYrr.tif">
	<g>
		<path  style="fill:#ff5f24;" class="st0" d="M2001,694c0,219.7,0,439.3,0,659c-2.2,9.7-4.1,19.5-6.6,29.1c-36.9,142.1-163.6,240.2-310.9,240.2
			c-453.6,0.1-907.2,0-1360.9,0.1c-29.7,0-58.8-3.8-87.3-11.9C96.5,1570.9,2.1,1446.2,2,1301.9c-0.1-185.8,0-371.6,0-557.4
			c0-53.1,11.8-103.6,37.5-150C90.6,502.3,168.4,447,272.4,428.9c10.1-1.8,20.4-2.6,30.6-3.9c467,0,934,0,1401,0
			c1.3,0.3,2.5,0.6,3.8,0.8c17.4,2.7,35.3,3.8,52.2,8.4c119.3,32.2,197.1,107.6,233,225.9C1996.4,671.2,1998.4,682.7,2001,694z
			 M631.1,1199.4c107.8,0,215,0,322.9,0c0,47.8,0,95,0,142.1c40,0,79.4,0,119.3,0c0-47.5,0-94.6,0-142.2c33.4,0,66.3,0,99.4,0
			c0-31,0-61.4,0-92.5c-33.3,0-66.3,0-99.8,0c0-145.3,0-289.9,0-434.7c-1.4-0.1-2.3-0.2-3.3-0.2c-46,0-92-0.1-138,0.1
			c-2,0-4.6,1.7-5.8,3.4c-97.5,145.3-194.9,290.8-292.2,436.2c-1.5,2.2-2.3,5.2-2.4,7.8c-0.2,24.8-0.1,49.7-0.1,74.5
			C631.1,1195.6,631.1,1197.2,631.1,1199.4z M1666.2,1199.4c33.5,0,66.5,0,99.6,0c0-31.2,0-61.8,0-92.8c-33.3,0-66.2,0-99.8,0
			c0-145.2,0-289.9,0-434.6c-1.3-0.1-1.9-0.2-2.6-0.2c-46.3,0-92.7-0.1-139,0.1c-1.9,0-4.5,1.9-5.6,3.6
			c-97.4,145.2-194.7,290.6-292,435.9c-1.5,2.2-2.3,5.2-2.3,7.8c-0.2,24.8-0.1,49.7-0.1,74.5c0,1.7,0.2,3.5,0.3,5.8
			c107.6,0,214.7,0,322.3,0c0,47.7,0,94.7,0,142.1c39.9,0,79.3,0,119.2,0C1666.2,1294.3,1666.2,1247.2,1666.2,1199.4z M519.7,672.2
			c-1-0.1-1.8-0.2-2.6-0.2c-35.7,0-71.3,0-107,0.1c-2,0-4.2,0.8-6.1,1.7c-52,23.9-104,48-156.1,71.7c-4.8,2.2-5.3,4.7-4.6,9.1
			c3,20.5,5.8,41.1,8.7,61.7c1.5,10.5,2.9,21,4.5,32.1c45.7-17.5,90.9-34.9,136.7-52.5c0,182.4,0,364,0,545.7c42.4,0,84.5,0,126.6,0
			C519.7,1118.2,519.7,895.3,519.7,672.2z"/>
		<path style="fill:#ff5f24;" class="st0" d="M953.6,803.3c0,100.9,0,201.9,0,303.2c-68,0-135.9,0-204.6,0c68-101.4,135.9-202.4,203.7-303.5
			C953,803.1,953.3,803.2,953.6,803.3z"/>
		<path style="fill:#ff5f24;" class="st0" d="M1342.5,1106.4c68-101.3,135.7-202.2,204.2-304.2c0,102.2,0,203,0,304.2
			C1479,1106.4,1411.3,1106.4,1342.5,1106.4z"/>
	</g>
</g>
</svg>
