<?xml version="1.0" encoding="utf-8"?>
<!-- Generator: Adobe Illustrator 22.1.0, SVG Export Plug-In . SVG Version: 6.00 Build 0)  -->
<svg version="1.1" id="Capa_1" xmlns="http://www.w3.org/2000/svg" xmlns:xlink="http://www.w3.org/1999/xlink" x="0px" y="0px"
	 viewBox="0 0 512.9 512.9" style="enable-background:new 0 0 512.9 512.9;" xml:space="preserve">
<g>
	<g>
		<g>
			<path style="fill:#ff5f24;" d="M336.5,21.8C326.2,15.8,315.3,11,304,7.5l-9.5,30.6c9.1,2.8,17.8,6.6,26,11.4L336.5,21.8z"/>
			<path style="fill:#ff5f24;" d="M362,87.8l26.3-18.2c-6.7-9.8-14.5-18.7-23.2-26.8l-21.7,23.5C350.3,72.8,356.6,80,362,87.8z"/>
			<path style="fill:#ff5f24;" d="M189.5,160.3l67,104.3l67-104.3l-67-104.3L189.5,160.3z M256.5,205.4l-29-45.1l29-45.1l29,45.1L256.5,205.4z"/>
			<polygon style="fill:#ff5f24;" points="160.5,397.5 131.5,352.3 146.9,328.3 120,311.1 93.5,352.3 160.5,456.7 222,361 195,343.7 			"/>
			<path style="fill:#ff5f24;" d="M449.4,224.9c-11.9-9-25-16.3-38.9-21.6c9.6-33.8,7.7-69.8-5.4-102.4l-29.7,11.9c26.3,65.6-5.6,140.1-71.2,166.4
				s-140.1-5.6-166.4-71.2s5.6-140.1,71.2-166.4c15.1-6.1,31.3-9.2,47.6-9.2c3.4,0,6.8,0.1,10.1,0.4l2.5-31.9
				c-4.2-0.3-8.4-0.5-12.7-0.5c-88.1-0.3-159.7,70.9-160,159c0,14.8,2,29.6,6,43.9C20.1,235-21,327.6,10.7,410.1
				s124.4,123.5,206.8,91.8c13.9-5.4,27-12.6,38.9-21.6c70.5,53.3,170.8,39.3,224.1-31.2C533.9,378.5,519.9,278.2,449.4,224.9z
				 M245.8,447.7c-52.6,47.2-133.5,42.9-180.8-9.7c-47.2-52.6-42.9-133.5,9.7-180.8c11.5-10.4,24.9-18.5,39.3-24.1
				c31.5,62.7,100.5,97.2,169.6,84.8c3.2,11.2,4.8,22.8,4.8,34.5C288.5,388.8,272.9,423.4,245.8,447.7z M471.8,398.7
				c-19.1,49.2-66.5,81.7-119.4,81.6c-25.7,0-50.8-7.8-72-22.4c14.1-16,24.9-34.7,31.7-54.9l41.9,51.2l65.4-101.9L393,311.1
				l-26.9,17.3l15.4,24l-30.6,47.5L320,361.9c0.2-3.2,0.5-6.4,0.5-9.6c0-14.6-2-29.1-6-43.1C351,295,381,267.9,398.9,233
				C464.8,258.6,497.4,332.8,471.8,398.7z"/>
		</g>
	</g>
</g>
</svg>
