<?xml version="1.0" encoding="utf-8"?>
<!-- Generator: Adobe Illustrator 22.1.0, SVG Export Plug-In . SVG Version: 6.00 Build 0)  -->
<svg version="1.1" id="Capa_1" xmlns="http://www.w3.org/2000/svg" xmlns:xlink="http://www.w3.org/1999/xlink" x="0px" y="0px"
	 viewBox="0 0 512 512" style="enable-background:new 0 0 512 512;" xml:space="preserve">
<g>
	<g>
		<g>
			<path style="fill:#ff5f24;" d="M160,322.7c88.4,0,160-71.6,160-160s-71.6-160-160-160S0,74.3,0,162.7C0.1,251,71.7,322.6,160,322.7z M160,34.7
				c70.7,0,128,57.3,128,128s-57.3,128-128,128s-128-57.3-128-128C32.1,92.1,89.3,34.8,160,34.7z"/>
			<path style="fill:#ff5f24;"  d="M227,162.7L160,58.5L93,162.7L160,267L227,162.7z M160,117.6l29,45.1l-29,45.1l-29-45.1L160,117.6z"/>
			<rect style="fill:#ff5f24;" x="68.1" y="433.3" transform="matrix(0.8089 -0.5879 0.5879 0.8089 -248.0852 135.2799)" width="32" height="32"/>
			<rect style="fill:#ff5f24;" x="16.3" y="471" transform="matrix(0.8089 -0.5879 0.5879 0.8089 -280.1156 112.0443)" width="32" height="32"/>
			<polygon style="fill:#ff5f24;" points="432,258.7 432,290.7 461.5,290.7 318.3,460 192.9,350.3 113.5,408 132.3,433.9 191.1,391.2 321.7,505.5 
				480,318.4 480,338.7 512,338.7 512,258.7 			"/>
		</g>
	</g>
</g>
</svg>
