<?xml version="1.0" encoding="utf-8"?>
<!-- Generator: Adobe Illustrator 22.1.0, SVG Export Plug-In . SVG Version: 6.00 Build 0)  -->
<svg version="1.1" id="Capa_1" xmlns="http://www.w3.org/2000/svg" xmlns:xlink="http://www.w3.org/1999/xlink" x="0px" y="0px"
	 viewBox="0 0 512 512" style="enable-background:new 0 0 512 512;" xml:space="preserve">
<g>
	<g>
		<path style="fill:#ff5f24;" d="M424.1,177.5c-25.3-35.4-66.3-56.5-109.8-56.5H197.8c-43.5,0-84.6,21.1-109.8,56.5L64,211h72c52.2,0,97.5,29.8,120,73.2
			c22.5-43.4,67.8-73.2,120-73.2h72L424.1,177.5z"/>
	</g>
</g>
<g>
	<g>
		<path style="fill:#ff5f24;" d="M256,451c-22.2,0-40.8,16-44.3,37.5L256,512l43.7-24.3C295.6,463.9,276.1,451,256,451z"/>
	</g>
</g>
<g>
	<g>
		<path style="fill:#ff5f24;" d="M56.9,0l49.5,115.6c21.9-14.5,47-23.9,73.4-26.8C152.1,44.8,108.1,12.5,56.9,0z"/>
	</g>
</g>
<g>
	<g>
		<path style="fill:#ff5f24;" d="M31,15.7v186.5l32.5-45.5c5.6-7.8,12-14.9,18.7-21.6L31,15.7z"/>
	</g>
</g>
<g>
	<g>
		<path style="fill:#ff5f24;" d="M332.2,88.8c26.4,2.9,51.5,12.3,73.4,26.8L455.1,0C403.9,12.5,359.9,44.8,332.2,88.8z"/>
	</g>
</g>
<g>
	<g>
		<path style="fill:#ff5f24;" d="M429.8,135.2c6.8,6.6,13.1,13.7,18.7,21.6l32.5,45.5V15.8L429.8,135.2z"/>
	</g>
</g>
<g>
	<g>
		<path style="fill:#ff5f24;" d="M136,241H42.6L14,282.6C1.6,300-2.9,321.8,1.8,342.7c4.7,20.8,18.1,38.7,36.7,49.1l146.3,81.9
			c8.9-28.5,30.5-45.8,56.1-50.9V346C241,288.1,193.9,241,136,241z M151,346.1c0-24.8-20.2-45-45-45v-30c41.4,0,75,33.6,75,75H151z"
			/>
	</g>
</g>
<g>
	<g>
		<path style="fill:#ff5f24;" d="M498,282.6L469.4,241H376c-57.9,0-105,47.1-105,105v76.7c25.1,5.2,47.5,22.8,56.3,50.8l147.2-81.8
			c18.6-10.4,30.9-28.3,35.6-49.1C514.9,321.8,510.4,300,498,282.6z M406,301.1c-24.8,0-45,20.2-45,45h-30c0-41.4,33.6-75,75-75
			V301.1z"/>
	</g>
</g>
</svg>
