<?xml version="1.0" encoding="utf-8"?>
<!-- Generator: Adobe Illustrator 22.1.0, SVG Export Plug-In . SVG Version: 6.00 Build 0)  -->
<svg version="1.1" id="Слой_1" xmlns="http://www.w3.org/2000/svg" xmlns:xlink="http://www.w3.org/1999/xlink" x="0px" y="0px"
	 viewBox="0 0 1920 1080" style="enable-background:new 0 0 1920 1080;" xml:space="preserve">
<style type="text/css">
	.st0{fill:#EBEBEB;}
	.st1{fill:#DE5A15;}
</style>
<g>
	<path class="st0" d="M1031.7,503.2l70.6-65.7c2.4-2.3,0.8-6.4-2.5-6.4h-93.5l-21.5,21.5c-14.7,14.7-19.2,35.7-13.4,54.3h51
		C1025.8,506.9,1029.2,505.6,1031.7,503.2z"/>
	<path class="st1" d="M1190.9,413.7l-173.3-171h-17.3h-87l134.5,135.2l-0.4,0.4l5.8,5.8l-33.5,33.5h89.3h15.9c6.6,0,9.8,8.1,5,12.6
		l-11.6,10.8l-81.3,75.7c-2.5,2.4-5.9,3.7-9.4,3.7h-50c2,3.1,4.4,6,7.1,8.7l31.1,31.1c21.1,21.1,55.4,21.1,76.6,0l108.1-108.1
		c8-8,8-20.9,0-28.8L1190.9,413.7z"/>
</g>
<g>
	<path class="st1" d="M846.3,390.7l54.3-52.9L838.8,276l33.4-33.4h-66.7h-14.3h-16.1c-6.1,0-9.2-7.4-4.9-11.7l11.4-11.4l75.9-75.7
		c2.6-2.6,6.2-4.1,9.9-4.1H916c-2.1-3.5-4.7-6.7-7.7-9.7l-31.1-31.1c-21.1-21.1-55.4-21.1-76.6,0L692,207.6c-8,8-8,20.9,0,28.8
		l5.1,5.1l0,0L846.3,390.7z"/>
</g>
<path class="st0" d="M1099.8,431.1H938l0,0l72.1-72.1l-36.7-36.8l-18.3-18.4l-66.3,64.5l-64.5,62.8l-6,5.8
	c-3.9,3.8-6.2,9.1-6.2,14.6v35c0,11.3,9.1,20.4,20.4,20.4h189.8c3.5,0,6.8-1.3,9.4-3.7l42.5-39.6l28.1-26.1
	C1104.7,435.2,1103.1,431.1,1099.8,431.1z"/>
<path class="st0" d="M1115.6,245.3v-2.6l0,0v-8.6l-0.1-37.3v-23c0-11.3-9.1-20.4-20.4-20.4H872.9c-3.7,0-7.2,1.5-9.9,4.1L797.3,223
	c-2.3,2.3-0.7,6.2,2.5,6.2h227.3l3.1,2.8l53.3,53.9l26.1-26.1C1113.4,255.9,1115.6,250.7,1115.6,245.3z"/>
<g>
	<g>
		<path class="st0" d="M436.5,714.6c0,16.7-5.5,29.6-16.4,38.5c-10.9,8.9-26.6,13.4-46.8,13.4h-16.7v60h-26.2V666.1h46.2
			c20,0,35,4.1,45,12.3C431.5,686.6,436.5,698.7,436.5,714.6z M356.6,744.4h13.9c13.4,0,23.3-2.3,29.6-7s9.4-12,9.4-21.9
			c0-9.2-2.8-16.1-8.4-20.6c-5.6-4.5-14.4-6.8-26.3-6.8h-18.2V744.4z"/>
		<path class="st0" d="M565.9,826.4H457.2v-19.5l41.3-41.6c12.2-12.5,20.3-21.4,24.3-26.6s6.9-10.1,8.7-14.7
			c1.8-4.6,2.7-9.5,2.7-14.8c0-7.2-2.2-12.9-6.5-17.1s-10.4-6.2-18-6.2c-6.1,0-12.1,1.1-17.8,3.4s-12.4,6.4-19.9,12.3l-13.9-17
			c8.9-7.5,17.6-12.9,26-16c8.4-3.1,17.4-4.7,26.9-4.7c14.9,0,26.9,3.9,35.9,11.7s13.5,18.3,13.5,31.4c0,7.2-1.3,14.1-3.9,20.6
			c-2.6,6.5-6.6,13.2-12,20.1c-5.4,6.9-14.3,16.2-26.8,28l-27.8,27v1.1H566L565.9,826.4L565.9,826.4z"/>
		<path class="st0" d="M702.8,714.6c0,16.7-5.5,29.6-16.4,38.5c-10.9,8.9-26.6,13.4-46.8,13.4h-16.7v60h-26.2V666.1h46.2
			c20,0,35,4.1,45,12.3C697.8,686.6,702.8,698.7,702.8,714.6z M622.9,744.4h13.9c13.4,0,23.3-2.3,29.6-7s9.4-12,9.4-21.9
			c0-9.2-2.8-16.1-8.4-20.6c-5.6-4.5-14.4-6.8-26.3-6.8h-18.2V744.4z"/>
		<path class="st0" d="M790.2,826.4H764V688.6h-47.1v-22.5h120.5v22.5h-47.1v137.8H790.2z"/>
		<path class="st0" d="M888.1,762.4v64h-26.2V666.1h45.3c20.7,0,36,3.9,45.9,11.6s14.9,19.4,14.9,35.1c0,20-10.4,34.2-31.1,42.6
			l45.3,70.9h-29.8l-38.4-64h-25.9V762.4z M888.1,740.7h18.2c12.2,0,21.1-2.3,26.5-6.8c5.5-4.5,8.2-11.3,8.2-20.2
			c0-9.1-3-15.6-8.9-19.5c-5.9-3.9-14.8-5.9-26.8-5.9H888v52.4H888.1z"/>
		<path class="st0" d="M1104.9,826.4l-16-44.5h-61.3l-15.7,44.5h-27.6l60-160.9h28.5l60,160.9H1104.9z M1081.9,759.3l-15-43.6
			c-1.1-2.9-2.6-7.5-4.5-13.8s-3.3-10.9-4-13.8c-2,9-4.9,18.8-8.7,29.5l-14.5,41.8h46.7V759.3z"/>
		<path class="st0" d="M1284.2,744.8c0,26.5-7.3,46.7-22,60.7s-35.9,21-63.5,21h-44.8V666.1h49.6c25.5,0,45.4,6.9,59.5,20.6
			C1277.1,700.5,1284.2,719.8,1284.2,744.8z M1256.6,745.6c0-38.4-17.9-57.6-53.8-57.6h-22.7v116.3h18.6
			C1237.3,804.4,1256.6,784.8,1256.6,745.6z"/>
		<path class="st0" d="M1409.3,826.4h-90.6V666.1h90.7v22.1h-64.5v43.6h60.4v21.9h-60.4V804h64.5L1409.3,826.4L1409.3,826.4z"/>
		<path class="st0" d="M1433.6,816.3c0-3.9,1-7,3.1-9.1c2-2.1,5-3.2,8.9-3.2s6.9,1.1,9,3.3c2,2.2,3.1,5.2,3.1,8.9
			c0,3.8-1,6.9-3.1,9.1c-2.1,2.2-5.1,3.4-8.9,3.4s-6.9-1.1-8.9-3.3C1434.6,823.2,1433.6,820.2,1433.6,816.3z"/>
		<path class="st0" d="M1480.8,713.2c0-3.4,0.9-6,2.8-7.8s4.5-2.8,8-2.8c3.3,0,5.9,0.9,7.8,2.8c1.9,1.8,2.8,4.4,2.8,7.8
			c0,3.2-0.9,5.8-2.8,7.6c-1.9,1.9-4.5,2.8-7.8,2.8c-3.5,0-6.1-0.9-8-2.8C1481.8,719,1480.8,716.5,1480.8,713.2z M1501,826.4h-19
			v-89.5h19V826.4z"/>
		<path class="st0" d="M1607.6,781.5c0,14.6-3.8,26-11.2,34.2c-7.5,8.2-17.9,12.3-31.3,12.3c-8.4,0-15.8-1.9-22.2-5.7
			c-6.4-3.8-11.4-9.2-14.8-16.3c-3.5-7.1-5.2-15.3-5.2-24.6c0-14.5,3.7-25.8,11.2-34c7.4-8.1,17.9-12.2,31.5-12.2
			c12.9,0,23.2,4.2,30.8,12.5C1603.8,756.1,1607.6,767.4,1607.6,781.5z M1542.4,781.5c0,20.7,7.6,31,22.9,31
			c15.1,0,22.7-10.3,22.7-31c0-20.4-7.6-30.7-22.8-30.7c-8,0-13.8,2.6-17.4,7.9C1544.2,764.1,1542.4,771.6,1542.4,781.5z"/>
	</g>
</g>
<g>
	<g>
		<path class="st0" d="M327.2,866.5h23.1c10.7,0,18.5,1.6,23.3,4.7c4.8,3.1,7.2,8.1,7.2,14.8c0,4.6-1.2,8.3-3.5,11.4
			s-5.7,4.9-10.1,5.7v0.5c5.5,1,9.5,3.1,12.1,6.1s3.9,7.2,3.9,12.3c0,7-2.4,12.5-7.3,16.5c-4.9,4-11.7,5.9-20.4,5.9h-28.2
			L327.2,866.5L327.2,866.5z M340,898.7h12.3c5.3,0,9.2-0.8,11.7-2.5s3.7-4.6,3.7-8.6c0-3.7-1.3-6.3-4-7.9
			c-2.6-1.6-6.9-2.5-12.6-2.5h-11v21.5H340z M340,909.1v24.7h13.5c5.3,0,9.4-1,12.1-3.1c2.7-2,4.1-5.3,4.1-9.7c0-4.1-1.4-7.1-4.2-9
			c-2.8-2-7-2.9-12.6-2.9H340z"/>
		<path class="st0" d="M434.9,944.5l-2.5-8.2H432c-2.8,3.6-5.7,6-8.6,7.3s-6.6,1.9-11.1,1.9c-5.8,0-10.3-1.6-13.6-4.7
			c-3.3-3.1-4.9-7.6-4.9-13.3c0-6.1,2.3-10.7,6.8-13.8s11.4-4.8,20.6-5.1l10.2-0.3v-3.1c0-3.8-0.9-6.6-2.6-8.5
			c-1.8-1.9-4.5-2.8-8.2-2.8c-3,0-5.9,0.4-8.7,1.3c-2.8,0.9-5.4,1.9-8,3.1l-4.1-9c3.2-1.7,6.7-2.9,10.5-3.8
			c3.8-0.9,7.4-1.3,10.8-1.3c7.5,0,13.2,1.6,17,4.9c3.8,3.3,5.7,8.4,5.7,15.4v39.7h-8.9V944.5z M416.2,936c4.6,0,8.2-1.3,11-3.8
			s4.1-6.1,4.1-10.7v-5.1l-7.6,0.3c-5.9,0.2-10.2,1.2-12.9,3s-4,4.5-4,8.1c0,2.6,0.8,4.7,2.3,6.1C410.8,935.2,413.1,936,416.2,936z"
			/>
		<path class="st0" d="M501,927.7c0,5.8-2.1,10.2-6.3,13.3s-10.2,4.6-18,4.6c-7.9,0-14.2-1.2-18.9-3.6v-10.8
			c6.9,3.2,13.4,4.8,19.4,4.8c7.7,0,11.6-2.3,11.6-7c0-1.5-0.4-2.7-1.3-3.7c-0.9-1-2.3-2-4.2-3.1c-2-1.1-4.7-2.3-8.2-3.6
			c-6.8-2.6-11.4-5.3-13.8-7.9s-3.6-6-3.6-10.2c0-5,2-9,6.1-11.8s9.6-4.2,16.6-4.2c6.9,0,13.5,1.4,19.7,4.2l-4.1,9.4
			c-6.4-2.6-11.7-3.9-16.1-3.9c-6.6,0-9.9,1.9-9.9,5.7c0,1.8,0.9,3.4,2.6,4.7s5.5,3,11.3,5.3c4.9,1.9,8.4,3.6,10.6,5.2
			c2.2,1.6,3.8,3.4,4.9,5.4C500.5,922.4,501,924.8,501,927.7z"/>
		<path class="st0" d="M540.3,945.6c-9.2,0-16.3-2.7-21.5-8c-5.2-5.4-7.8-12.7-7.8-22.1c0-9.6,2.4-17.2,7.2-22.7s11.4-8.3,19.8-8.3
			c7.8,0,13.9,2.4,18.5,7.1c4.5,4.7,6.8,11.2,6.8,19.5v6.8H524c0.2,5.7,1.7,10.1,4.6,13.2c2.9,3.1,7,4.6,12.3,4.6
			c3.5,0,6.7-0.3,9.7-1s6.2-1.8,9.7-3.3v10.2c-3.1,1.5-6.2,2.5-9.3,3.1C547.9,945.3,544.3,945.6,540.3,945.6z M538,893.9
			c-4,0-7.2,1.3-9.6,3.8c-2.4,2.5-3.8,6.2-4.3,11h26.8c-0.1-4.9-1.2-8.6-3.5-11.1S542,893.9,538,893.9z"/>
		<path class="st0" d="M597.4,945.6c-7.4,0-13.1-2.7-17.2-8c-4.1-5.3-6.2-12.8-6.2-22.5s2.1-17.2,6.3-22.6s10-8.1,17.4-8.1
			c7.8,0,13.7,2.9,17.7,8.6h0.6c-0.6-4.2-0.9-7.6-0.9-10v-21.5h12.6v83h-9.8l-2.2-7.7h-0.6C611,942.6,605.1,945.6,597.4,945.6z
			 M600.7,935.4c5.2,0,8.9-1.4,11.3-4.3s3.6-7.6,3.6-14.1v-1.8c0-7.4-1.2-12.7-3.6-15.8c-2.4-3.1-6.2-4.7-11.4-4.7
			c-4.4,0-7.8,1.8-10.2,5.4c-2.4,3.6-3.6,8.7-3.6,15.3c0,6.5,1.2,11.5,3.5,15C592.6,933.7,596.1,935.4,600.7,935.4z"/>
		<path class="st0" d="M726.2,914.9c0,9.6-2.5,17.2-7.4,22.6c-4.9,5.4-11.8,8.1-20.6,8.1c-5.5,0-10.4-1.2-14.6-3.7
			c-4.2-2.5-7.5-6.1-9.8-10.7s-3.4-10.1-3.4-16.2c0-9.6,2.5-17,7.4-22.4s11.8-8.1,20.7-8.1c8.5,0,15.3,2.7,20.3,8.2
			S726.2,905.6,726.2,914.9z M683.3,914.9c0,13.6,5,20.4,15.1,20.4c10,0,14.9-6.8,14.9-20.4c0-13.5-5-20.2-15-20.2
			c-5.3,0-9.1,1.7-11.4,5.2C684.5,903.4,683.3,908.4,683.3,914.9z"/>
		<path class="st0" d="M792.5,944.5h-12.6v-36.3c0-4.6-0.9-7.9-2.7-10.2c-1.8-2.2-4.7-3.4-8.7-3.4c-5.3,0-9.2,1.6-11.6,4.7
			c-2.5,3.1-3.7,8.4-3.7,15.7v29.4h-12.5v-59h9.8l1.8,7.7h0.6c1.8-2.8,4.3-5,7.6-6.5c3.3-1.5,6.9-2.3,10.9-2.3
			c14.2,0,21.2,7.2,21.2,21.6v38.6H792.5z"/>
		<path class="st0" d="M877.9,927.7c0,5.8-2.1,10.2-6.3,13.3c-4.2,3.1-10.2,4.6-18,4.6c-7.9,0-14.2-1.2-18.9-3.6v-10.8
			c6.9,3.2,13.4,4.8,19.4,4.8c7.7,0,11.6-2.3,11.6-7c0-1.5-0.4-2.7-1.3-3.7s-2.3-2-4.2-3.1c-2-1.1-4.7-2.3-8.2-3.6
			c-6.8-2.6-11.4-5.3-13.8-7.9s-3.6-6-3.6-10.2c0-5,2-9,6.1-11.8s9.6-4.2,16.6-4.2c6.9,0,13.5,1.4,19.7,4.2l-4.1,9.4
			c-6.4-2.6-11.7-3.9-16.1-3.9c-6.6,0-9.9,1.9-9.9,5.7c0,1.8,0.9,3.4,2.6,4.7s5.5,3,11.3,5.3c4.9,1.9,8.4,3.6,10.6,5.2
			c2.2,1.6,3.8,3.4,4.9,5.4C877.4,922.4,877.9,924.8,877.9,927.7z"/>
		<path class="st0" d="M941.2,944.5h-12.6v-36.4c0-4.5-0.9-7.9-2.6-10.1c-1.7-2.2-4.4-3.3-8-3.3c-4.8,0-8.4,1.6-10.6,4.7
			c-2.3,3.1-3.4,8.4-3.4,15.7v29.4h-12.5v-59h9.8l1.8,7.7h0.6c1.6-2.8,4-5,7.1-6.5s6.5-2.3,10.3-2.3c9.1,0,15.1,3.1,18,9.3h0.9
			c1.7-2.9,4.2-5.2,7.4-6.8c3.2-1.6,6.8-2.5,10.9-2.5c7,0,12.2,1.8,15.4,5.3c3.2,3.6,4.8,9,4.8,16.3v38.5H966v-36.4
			c0-4.5-0.9-7.9-2.6-10.1c-1.7-2.2-4.4-3.3-8-3.3c-4.9,0-8.4,1.5-10.7,4.6c-2.3,3-3.4,7.7-3.4,14v31.2H941.2z"/>
		<path class="st0" d="M1032.8,944.5l-2.5-8.2h-0.4c-2.8,3.6-5.7,6-8.6,7.3c-2.9,1.3-6.6,1.9-11.1,1.9c-5.8,0-10.3-1.6-13.6-4.7
			c-3.3-3.1-4.9-7.6-4.9-13.3c0-6.1,2.3-10.7,6.8-13.8s11.4-4.8,20.6-5.1l10.2-0.3v-3.1c0-3.8-0.9-6.6-2.6-8.5
			c-1.8-1.9-4.5-2.8-8.2-2.8c-3,0-5.9,0.4-8.7,1.3c-2.8,0.9-5.4,1.9-8,3.1l-4.1-9c3.2-1.7,6.7-2.9,10.5-3.8
			c3.8-0.9,7.4-1.3,10.8-1.3c7.5,0,13.2,1.6,17,4.9c3.8,3.3,5.7,8.4,5.7,15.4v39.7h-8.9V944.5z M1014.1,936c4.6,0,8.2-1.3,11-3.8
			c2.8-2.5,4.1-6.1,4.1-10.7v-5.1l-7.6,0.3c-5.9,0.2-10.2,1.2-12.9,3c-2.7,1.8-4,4.5-4,8.1c0,2.6,0.8,4.7,2.3,6.1
			C1008.7,935.2,1011,936,1014.1,936z"/>
		<path class="st0" d="M1089.2,884.4c2.5,0,4.6,0.2,6.2,0.5l-1.2,11.7c-1.8-0.4-3.6-0.6-5.5-0.6c-5,0-9.1,1.6-12.2,4.9
			c-3.1,3.3-4.7,7.5-4.7,12.7v30.8h-12.5v-59h9.8l1.7,10.4h0.6c2-3.5,4.5-6.3,7.7-8.4S1085.6,884.4,1089.2,884.4z"/>
		<path class="st0" d="M1128.3,935.4c3.1,0,6.1-0.5,9.2-1.4v9.4c-1.4,0.6-3.2,1.1-5.4,1.5c-2.2,0.4-4.5,0.6-6.8,0.6
			c-11.9,0-17.8-6.3-17.8-18.8v-31.8h-8.1v-5.5l8.6-4.6l4.3-12.5h7.7v13.1h16.8v9.5H1120v31.6c0,3,0.8,5.3,2.3,6.7
			C1123.9,934.7,1125.9,935.4,1128.3,935.4z"/>
		<path class="st0" d="M1201.4,945.6c-8.9,0-15.7-2.6-20.3-7.8c-4.6-5.2-7-12.7-7-22.4c0-9.9,2.4-17.5,7.3-22.9c4.9-5.3,11.9-8,21-8
			c6.2,0,11.8,1.2,16.8,3.5l-3.8,10.1c-5.3-2.1-9.7-3.1-13.1-3.1c-10.2,0-15.3,6.8-15.3,20.3c0,6.6,1.3,11.6,3.8,14.9s6.3,5,11.2,5
			c5.6,0,10.9-1.4,15.8-4.2v10.9c-2.2,1.3-4.6,2.3-7.2,2.8C1208.1,945.3,1205.1,945.6,1201.4,945.6z"/>
		<path class="st0" d="M1284,914.9c0,9.6-2.5,17.2-7.4,22.6s-11.8,8.1-20.6,8.1c-5.5,0-10.4-1.2-14.6-3.7s-7.5-6.1-9.8-10.7
			c-2.3-4.7-3.4-10.1-3.4-16.2c0-9.6,2.5-17,7.4-22.4s11.8-8.1,20.7-8.1c8.5,0,15.3,2.7,20.3,8.2S1284,905.6,1284,914.9z
			 M1241.1,914.9c0,13.6,5,20.4,15.1,20.4c10,0,14.9-6.8,14.9-20.4c0-13.5-5-20.2-15-20.2c-5.3,0-9.1,1.7-11.4,5.2
			C1242.3,903.4,1241.1,908.4,1241.1,914.9z"/>
		<path class="st0" d="M1350.3,944.5h-12.6v-36.3c0-4.6-0.9-7.9-2.7-10.2c-1.8-2.2-4.7-3.4-8.7-3.4c-5.3,0-9.2,1.6-11.6,4.7
			c-2.5,3.1-3.7,8.4-3.7,15.7v29.4h-12.5v-59h9.8l1.8,7.7h0.6c1.8-2.8,4.3-5,7.6-6.5c3.3-1.5,6.9-2.3,10.9-2.3
			c14.2,0,21.2,7.2,21.2,21.6v38.6H1350.3z"/>
		<path class="st0" d="M1389.8,935.4c3.1,0,6.1-0.5,9.2-1.4v9.4c-1.4,0.6-3.2,1.1-5.4,1.5c-2.2,0.4-4.5,0.6-6.8,0.6
			c-11.9,0-17.8-6.3-17.8-18.8v-31.8h-8.1v-5.5l8.6-4.6l4.3-12.5h7.7v13.1h16.8v9.5h-16.8v31.6c0,3,0.8,5.3,2.3,6.7
			C1385.3,934.7,1387.3,935.4,1389.8,935.4z"/>
		<path class="st0" d="M1447.6,944.5l-2.5-8.2h-0.4c-2.8,3.6-5.7,6-8.6,7.3s-6.6,1.9-11.1,1.9c-5.8,0-10.3-1.6-13.6-4.7
			c-3.3-3.1-4.9-7.6-4.9-13.3c0-6.1,2.3-10.7,6.8-13.8s11.4-4.8,20.6-5.1l10.2-0.3v-3.1c0-3.8-0.9-6.6-2.6-8.5
			c-1.8-1.9-4.5-2.8-8.2-2.8c-3,0-5.9,0.4-8.7,1.3s-5.4,1.9-8,3.1l-4.1-9c3.2-1.7,6.7-2.9,10.5-3.8c3.8-0.9,7.4-1.3,10.8-1.3
			c7.5,0,13.2,1.6,17,4.9c3.8,3.3,5.7,8.4,5.7,15.4v39.7h-8.9V944.5z M1428.9,936c4.6,0,8.2-1.3,11-3.8s4.1-6.1,4.1-10.7v-5.1
			l-7.6,0.3c-5.9,0.2-10.2,1.2-12.9,3c-2.7,1.8-4,4.5-4,8.1c0,2.6,0.8,4.7,2.3,6.1C1423.5,935.2,1425.8,936,1428.9,936z"/>
		<path class="st0" d="M1497.9,945.6c-8.9,0-15.7-2.6-20.3-7.8c-4.6-5.2-7-12.7-7-22.4c0-9.9,2.4-17.5,7.3-22.9c4.9-5.3,11.9-8,21-8
			c6.2,0,11.8,1.2,16.8,3.5l-3.8,10.1c-5.3-2.1-9.7-3.1-13.1-3.1c-10.2,0-15.3,6.8-15.3,20.3c0,6.6,1.3,11.6,3.8,14.9
			c2.5,3.3,6.3,5,11.2,5c5.6,0,10.9-1.4,15.8-4.2v10.9c-2.2,1.3-4.6,2.3-7.2,2.8C1504.6,945.3,1501.5,945.6,1497.9,945.6z"/>
		<path class="st0" d="M1550.1,935.4c3.1,0,6.1-0.5,9.2-1.4v9.4c-1.4,0.6-3.2,1.1-5.4,1.5s-4.5,0.6-6.8,0.6
			c-11.9,0-17.8-6.3-17.8-18.8v-31.8h-8.1v-5.5l8.6-4.6l4.3-12.5h7.7v13.1h16.8v9.5h-16.8v31.6c0,3,0.8,5.3,2.3,6.7
			C1545.7,934.7,1547.7,935.4,1550.1,935.4z"/>
		<path class="st0" d="M1610.7,927.7c0,5.8-2.1,10.2-6.3,13.3c-4.2,3.1-10.2,4.6-18,4.6c-7.9,0-14.2-1.2-18.9-3.6v-10.8
			c6.9,3.2,13.4,4.8,19.4,4.8c7.7,0,11.6-2.3,11.6-7c0-1.5-0.4-2.7-1.3-3.7s-2.3-2-4.2-3.1c-2-1.1-4.7-2.3-8.2-3.6
			c-6.8-2.6-11.4-5.3-13.8-7.9s-3.6-6-3.6-10.2c0-5,2-9,6.1-11.8s9.6-4.2,16.6-4.2c6.9,0,13.5,1.4,19.7,4.2l-4.1,9.4
			c-6.4-2.6-11.7-3.9-16.1-3.9c-6.6,0-9.9,1.9-9.9,5.7c0,1.8,0.9,3.4,2.6,4.7s5.5,3,11.3,5.3c4.9,1.9,8.4,3.6,10.6,5.2
			c2.2,1.6,3.8,3.4,4.9,5.4C1610.2,922.4,1610.7,924.8,1610.7,927.7z"/>
	</g>
</g>
</svg>
