<?xml version="1.0" encoding="utf-8"?>
<!-- Generator: Adobe Illustrator 22.1.0, SVG Export Plug-In . SVG Version: 6.00 Build 0)  -->
<svg version="1.1" id="Слой_1" xmlns="http://www.w3.org/2000/svg" xmlns:xlink="http://www.w3.org/1999/xlink" x="0px" y="0px"
	 viewBox="0 0 1920 1080" style="enable-background:new 0 0 1920 1080;" xml:space="preserve">
<style type="text/css">
	.st0{fill:#EBEBEB;}
	.st1{fill:#DE5A15;}
</style>
<g>
	<g>
		<path class="st0" d="M358.4,713.7L429,648c2.4-2.3,0.8-6.4-2.5-6.4h-93.5l-21.5,21.5c-14.7,14.7-19.2,35.7-13.4,54.3h51
			C352.5,717.4,355.9,716.1,358.4,713.7z"/>
		<path class="st1" d="M517.6,624.2L344.3,453.2H327h-87l134.5,135.2l-0.4,0.4l5.8,5.8l-33.5,33.5h89.3h15.9c6.6,0,9.8,8.1,5,12.6
			L445,651.5l-81.3,75.7c-2.5,2.4-5.9,3.7-9.4,3.7h-50c2,3.1,4.4,6,7.1,8.7l31.1,31.1c21.1,21.1,55.4,21.1,76.6,0l108.1-108.1
			c8-8,8-20.9,0-28.8L517.6,624.2z"/>
	</g>
	<g>
		<path class="st1" d="M173,601.2l54.3-52.9l-61.8-61.8l33.4-33.4h-66.7h-14.3h-16.1c-6.1,0-9.2-7.4-4.9-11.7l11.4-11.4l75.9-75.7
			c2.6-2.6,6.2-4.1,9.9-4.1h48.6c-2.1-3.5-4.7-6.7-7.7-9.7l-31.1-31.1c-21.1-21.1-55.4-21.1-76.6,0L18.7,418.1c-8,8-8,20.9,0,28.8
			l5.1,5.1h0L173,601.2z"/>
	</g>
	<path class="st0" d="M426.5,641.6H264.7h0l72.1-72.1l-36.7-36.8l-18.3-18.4l-66.3,64.5l-64.5,62.8l-6,5.8
		c-3.9,3.8-6.2,9.1-6.2,14.6v35c0,11.3,9.1,20.4,20.4,20.4H349c3.5,0,6.8-1.3,9.4-3.7l42.5-39.6L429,648
		C431.4,645.7,429.8,641.6,426.5,641.6z"/>
	<path class="st0" d="M442.3,455.8l0-2.6l0,0l0-8.6l-0.1-37.3v-23c0-11.3-9.1-20.4-20.4-20.4H199.6c-3.7,0-7.2,1.5-9.9,4.1
		L124,433.5c-2.3,2.3-0.7,6.2,2.5,6.2h227.3l3.1,2.8l53.3,53.9l26.1-26.1C440.1,466.4,442.3,461.2,442.3,455.8z"/>
	<g>
		<g>
			<path class="st0" d="M735.8,454.8c0,16.7-5.5,29.6-16.4,38.5s-26.6,13.4-46.8,13.4h-16.7v60h-26.2V406.3h46.2
				c20,0,35,4.1,45,12.3C730.8,426.8,735.8,438.9,735.8,454.8z M655.9,484.6h13.9c13.4,0,23.3-2.3,29.6-7c6.3-4.7,9.4-12,9.4-21.9
				c0-9.2-2.8-16.1-8.4-20.6c-5.6-4.5-14.4-6.8-26.3-6.8h-18.2V484.6z"/>
			<path class="st0" d="M865.2,566.6H756.5v-19.5l41.3-41.6c12.2-12.5,20.3-21.4,24.3-26.6c4-5.2,6.9-10.1,8.7-14.7
				c1.8-4.6,2.7-9.5,2.7-14.8c0-7.2-2.2-12.9-6.5-17.1s-10.4-6.2-18-6.2c-6.1,0-12.1,1.1-17.8,3.4c-5.7,2.3-12.4,6.4-19.9,12.3
				l-13.9-17c8.9-7.5,17.6-12.9,26-16c8.4-3.1,17.4-4.7,26.9-4.7c14.9,0,26.9,3.9,35.9,11.7c9,7.8,13.5,18.3,13.5,31.4
				c0,7.2-1.3,14.1-3.9,20.6c-2.6,6.5-6.6,13.2-12,20.1c-5.4,6.9-14.3,16.2-26.8,28l-27.8,27v1.1h76.1V566.6z"/>
			<path class="st0" d="M1002.1,454.8c0,16.7-5.5,29.6-16.4,38.5s-26.6,13.4-46.8,13.4h-16.7v60H896V406.3h46.2c20,0,35,4.1,45,12.3
				C997.1,426.8,1002.1,438.9,1002.1,454.8z M922.2,484.6h13.9c13.4,0,23.3-2.3,29.6-7c6.3-4.7,9.4-12,9.4-21.9
				c0-9.2-2.8-16.1-8.4-20.6c-5.6-4.5-14.4-6.8-26.3-6.8h-18.2V484.6z"/>
			<path class="st0" d="M1089.5,566.6h-26.2V428.8h-47.1v-22.5h120.5v22.5h-47.1V566.6z"/>
			<path class="st0" d="M1187.4,502.6v64h-26.2V406.3h45.3c20.7,0,36,3.9,45.9,11.6c9.9,7.7,14.9,19.4,14.9,35.1
				c0,20-10.4,34.2-31.1,42.6l45.3,70.9h-29.8l-38.4-64H1187.4z M1187.4,480.9h18.2c12.2,0,21.1-2.3,26.5-6.8
				c5.5-4.5,8.2-11.3,8.2-20.2c0-9.1-3-15.6-8.9-19.5c-5.9-3.9-14.8-5.9-26.8-5.9h-17.3V480.9z"/>
			<path class="st0" d="M1404.2,566.6l-16-44.5h-61.3l-15.7,44.5h-27.6l60-160.9h28.5l60,160.9H1404.2z M1381.2,499.5l-15-43.6
				c-1.1-2.9-2.6-7.5-4.5-13.8c-1.9-6.3-3.3-10.9-4-13.8c-2,9-4.9,18.8-8.7,29.5l-14.5,41.8H1381.2z"/>
			<path class="st0" d="M1583.5,485c0,26.5-7.3,46.7-22,60.7c-14.7,14-35.9,21-63.5,21h-44.8V406.3h49.6c25.5,0,45.4,6.9,59.5,20.6
				C1576.4,440.7,1583.5,460,1583.5,485z M1555.9,485.8c0-38.4-17.9-57.6-53.8-57.6h-22.7v116.3h18.6
				C1536.6,544.6,1555.9,525,1555.9,485.8z"/>
			<path class="st0" d="M1708.6,566.6H1618V406.3h90.7v22.1h-64.5v43.6h60.4v21.9h-60.4v50.3h64.5V566.6z"/>
			<path class="st0" d="M1732.9,556.5c0-3.9,1-7,3.1-9.1c2-2.1,5-3.2,8.9-3.2c3.9,0,6.9,1.1,9,3.3c2,2.2,3.1,5.2,3.1,8.9
				c0,3.8-1,6.9-3.1,9.1c-2.1,2.2-5.1,3.4-8.9,3.4s-6.9-1.1-8.9-3.3C1733.9,563.4,1732.9,560.4,1732.9,556.5z"/>
			<path class="st0" d="M1780.1,453.4c0-3.4,0.9-6,2.8-7.8c1.9-1.8,4.5-2.8,8-2.8c3.3,0,5.9,0.9,7.8,2.8c1.9,1.8,2.8,4.4,2.8,7.8
				c0,3.2-0.9,5.8-2.8,7.6c-1.9,1.9-4.5,2.8-7.8,2.8c-3.5,0-6.1-0.9-8-2.8C1781.1,459.2,1780.1,456.7,1780.1,453.4z M1800.3,566.6
				h-19v-89.5h19V566.6z"/>
			<path class="st0" d="M1906.9,521.7c0,14.6-3.8,26-11.2,34.2c-7.5,8.2-17.9,12.3-31.3,12.3c-8.4,0-15.8-1.9-22.2-5.7
				c-6.4-3.8-11.4-9.2-14.8-16.3c-3.5-7.1-5.2-15.3-5.2-24.6c0-14.5,3.7-25.8,11.2-34c7.4-8.1,17.9-12.2,31.5-12.2
				c12.9,0,23.2,4.2,30.8,12.5C1903.1,496.3,1906.9,507.6,1906.9,521.7z M1841.7,521.7c0,20.7,7.6,31,22.9,31
				c15.1,0,22.7-10.3,22.7-31c0-20.4-7.6-30.7-22.8-30.7c-8,0-13.8,2.6-17.4,7.9C1843.5,504.3,1841.7,511.8,1841.7,521.7z"/>
		</g>
	</g>
	<g>
		<g>
			<path class="st0" d="M626.5,606.7h23.1c10.7,0,18.5,1.6,23.3,4.7c4.8,3.1,7.2,8.1,7.2,14.8c0,4.6-1.2,8.3-3.5,11.4
				s-5.7,4.9-10.1,5.7v0.5c5.5,1,9.5,3.1,12.1,6.1c2.6,3,3.9,7.2,3.9,12.3c0,7-2.4,12.5-7.3,16.5c-4.9,4-11.7,5.9-20.4,5.9h-28.2
				V606.7z M639.3,638.9h12.3c5.3,0,9.2-0.8,11.7-2.5c2.5-1.7,3.7-4.6,3.7-8.6c0-3.7-1.3-6.3-4-7.9c-2.6-1.6-6.9-2.5-12.6-2.5h-11
				V638.9z M639.3,649.3V674h13.5c5.3,0,9.4-1,12.1-3.1c2.7-2,4.1-5.3,4.1-9.7c0-4.1-1.4-7.1-4.2-9c-2.8-2-7-2.9-12.6-2.9H639.3z"/>
			<path class="st0" d="M734.2,684.7l-2.5-8.2h-0.4c-2.8,3.6-5.7,6-8.6,7.3s-6.6,1.9-11.1,1.9c-5.8,0-10.3-1.6-13.6-4.7
				c-3.3-3.1-4.9-7.6-4.9-13.3c0-6.1,2.3-10.7,6.8-13.8c4.5-3.1,11.4-4.8,20.6-5.1l10.2-0.3v-3.1c0-3.8-0.9-6.6-2.6-8.5
				c-1.8-1.9-4.5-2.8-8.2-2.8c-3,0-5.9,0.4-8.7,1.3c-2.8,0.9-5.4,1.9-8,3.1l-4.1-9c3.2-1.7,6.7-2.9,10.5-3.8
				c3.8-0.9,7.4-1.3,10.8-1.3c7.5,0,13.2,1.6,17,4.9c3.8,3.3,5.7,8.4,5.7,15.4v39.7H734.2z M715.5,676.2c4.6,0,8.2-1.3,11-3.8
				c2.8-2.5,4.1-6.1,4.1-10.7v-5.1l-7.6,0.3c-5.9,0.2-10.2,1.2-12.9,3c-2.7,1.8-4,4.5-4,8.1c0,2.6,0.8,4.7,2.3,6.1
				C710.1,675.4,712.4,676.2,715.5,676.2z"/>
			<path class="st0" d="M800.3,667.9c0,5.8-2.1,10.2-6.3,13.3c-4.2,3.1-10.2,4.6-18,4.6c-7.9,0-14.2-1.2-18.9-3.6v-10.8
				c6.9,3.2,13.4,4.8,19.4,4.8c7.7,0,11.6-2.3,11.6-7c0-1.5-0.4-2.7-1.3-3.7c-0.9-1-2.3-2-4.2-3.1c-2-1.1-4.7-2.3-8.2-3.6
				c-6.8-2.6-11.4-5.3-13.8-7.9s-3.6-6-3.6-10.2c0-5,2-9,6.1-11.8c4.1-2.8,9.6-4.2,16.6-4.2c6.9,0,13.5,1.4,19.7,4.2l-4.1,9.4
				c-6.4-2.6-11.7-3.9-16.1-3.9c-6.6,0-9.9,1.9-9.9,5.7c0,1.8,0.9,3.4,2.6,4.7s5.5,3,11.3,5.3c4.9,1.9,8.4,3.6,10.6,5.2
				c2.2,1.6,3.8,3.4,4.9,5.4C799.8,662.6,800.3,665,800.3,667.9z"/>
			<path class="st0" d="M839.6,685.8c-9.2,0-16.3-2.7-21.5-8c-5.2-5.4-7.8-12.7-7.8-22.1c0-9.6,2.4-17.2,7.2-22.7
				c4.8-5.5,11.4-8.3,19.8-8.3c7.8,0,13.9,2.4,18.5,7.1c4.5,4.7,6.8,11.2,6.8,19.5v6.8h-39.3c0.2,5.7,1.7,10.1,4.6,13.2
				c2.9,3.1,7,4.6,12.3,4.6c3.5,0,6.7-0.3,9.7-1c3-0.7,6.2-1.8,9.7-3.3v10.2c-3.1,1.5-6.2,2.5-9.3,3.1
				C847.2,685.5,843.6,685.8,839.6,685.8z M837.3,634.1c-4,0-7.2,1.3-9.6,3.8c-2.4,2.5-3.8,6.2-4.3,11h26.8
				c-0.1-4.9-1.2-8.6-3.5-11.1S841.3,634.1,837.3,634.1z"/>
			<path class="st0" d="M896.7,685.8c-7.4,0-13.1-2.7-17.2-8c-4.1-5.3-6.2-12.8-6.2-22.5c0-9.7,2.1-17.2,6.3-22.6s10-8.1,17.4-8.1
				c7.8,0,13.7,2.9,17.7,8.6h0.6c-0.6-4.2-0.9-7.6-0.9-10v-21.5h12.6v83h-9.8l-2.2-7.7h-0.6C910.3,682.8,904.4,685.8,896.7,685.8z
				 M900,675.6c5.2,0,8.9-1.4,11.3-4.3s3.6-7.6,3.6-14.1v-1.8c0-7.4-1.2-12.7-3.6-15.8c-2.4-3.1-6.2-4.7-11.4-4.7
				c-4.4,0-7.8,1.8-10.2,5.4c-2.4,3.6-3.6,8.7-3.6,15.3c0,6.5,1.2,11.5,3.5,15C891.9,673.9,895.4,675.6,900,675.6z"/>
			<path class="st0" d="M1025.5,655.1c0,9.6-2.5,17.2-7.4,22.6c-4.9,5.4-11.8,8.1-20.6,8.1c-5.5,0-10.4-1.2-14.6-3.7
				c-4.2-2.5-7.5-6.1-9.8-10.7s-3.4-10.1-3.4-16.2c0-9.6,2.5-17,7.4-22.4s11.8-8.1,20.7-8.1c8.5,0,15.3,2.7,20.3,8.2
				S1025.5,645.8,1025.5,655.1z M982.6,655.1c0,13.6,5,20.4,15.1,20.4c10,0,14.9-6.8,14.9-20.4c0-13.5-5-20.2-15-20.2
				c-5.3,0-9.1,1.7-11.4,5.2C983.8,643.6,982.6,648.6,982.6,655.1z"/>
			<path class="st0" d="M1091.8,684.7h-12.6v-36.3c0-4.6-0.9-7.9-2.7-10.2c-1.8-2.2-4.7-3.4-8.7-3.4c-5.3,0-9.2,1.6-11.6,4.7
				c-2.5,3.1-3.7,8.4-3.7,15.7v29.4h-12.5v-59h9.8l1.8,7.7h0.6c1.8-2.8,4.3-5,7.6-6.5c3.3-1.5,6.9-2.3,10.9-2.3
				c14.2,0,21.2,7.2,21.2,21.6V684.7z"/>
			<path class="st0" d="M1177.2,667.9c0,5.8-2.1,10.2-6.3,13.3c-4.2,3.1-10.2,4.6-18,4.6c-7.9,0-14.2-1.2-18.9-3.6v-10.8
				c6.9,3.2,13.4,4.8,19.4,4.8c7.7,0,11.6-2.3,11.6-7c0-1.5-0.4-2.7-1.3-3.7c-0.9-1-2.3-2-4.2-3.1c-2-1.1-4.7-2.3-8.2-3.6
				c-6.8-2.6-11.4-5.3-13.8-7.9s-3.6-6-3.6-10.2c0-5,2-9,6.1-11.8c4.1-2.8,9.6-4.2,16.6-4.2c6.9,0,13.5,1.4,19.7,4.2l-4.1,9.4
				c-6.4-2.6-11.7-3.9-16.1-3.9c-6.6,0-9.9,1.9-9.9,5.7c0,1.8,0.9,3.4,2.6,4.7s5.5,3,11.3,5.3c4.9,1.9,8.4,3.6,10.6,5.2
				c2.2,1.6,3.8,3.4,4.9,5.4C1176.7,662.6,1177.2,665,1177.2,667.9z"/>
			<path class="st0" d="M1240.5,684.7h-12.6v-36.4c0-4.5-0.9-7.9-2.6-10.1c-1.7-2.2-4.4-3.3-8-3.3c-4.8,0-8.4,1.6-10.6,4.7
				c-2.3,3.1-3.4,8.4-3.4,15.7v29.4h-12.5v-59h9.8l1.8,7.7h0.6c1.6-2.8,4-5,7.1-6.5c3.1-1.5,6.5-2.3,10.3-2.3c9.1,0,15.1,3.1,18,9.3
				h0.9c1.7-2.9,4.2-5.2,7.4-6.8c3.2-1.6,6.8-2.5,10.9-2.5c7,0,12.2,1.8,15.4,5.3c3.2,3.6,4.8,9,4.8,16.3v38.5h-12.5v-36.4
				c0-4.5-0.9-7.9-2.6-10.1c-1.7-2.2-4.4-3.3-8-3.3c-4.9,0-8.4,1.5-10.7,4.6c-2.3,3-3.4,7.7-3.4,14V684.7z"/>
			<path class="st0" d="M1332.1,684.7l-2.5-8.2h-0.4c-2.8,3.6-5.7,6-8.6,7.3s-6.6,1.9-11.1,1.9c-5.8,0-10.3-1.6-13.6-4.7
				c-3.3-3.1-4.9-7.6-4.9-13.3c0-6.1,2.3-10.7,6.8-13.8c4.5-3.1,11.4-4.8,20.6-5.1l10.2-0.3v-3.1c0-3.8-0.9-6.6-2.6-8.5
				c-1.8-1.9-4.5-2.8-8.2-2.8c-3,0-5.9,0.4-8.7,1.3c-2.8,0.9-5.4,1.9-8,3.1l-4.1-9c3.2-1.7,6.7-2.9,10.5-3.8
				c3.8-0.9,7.4-1.3,10.8-1.3c7.5,0,13.2,1.6,17,4.9c3.8,3.3,5.7,8.4,5.7,15.4v39.7H1332.1z M1313.4,676.2c4.6,0,8.2-1.3,11-3.8
				c2.8-2.5,4.1-6.1,4.1-10.7v-5.1l-7.6,0.3c-5.9,0.2-10.2,1.2-12.9,3c-2.7,1.8-4,4.5-4,8.1c0,2.6,0.8,4.7,2.3,6.1
				C1308,675.4,1310.3,676.2,1313.4,676.2z"/>
			<path class="st0" d="M1388.5,624.6c2.5,0,4.6,0.2,6.2,0.5l-1.2,11.7c-1.8-0.4-3.6-0.6-5.5-0.6c-5,0-9.1,1.6-12.2,4.9
				c-3.1,3.3-4.7,7.5-4.7,12.7v30.8h-12.5v-59h9.8l1.7,10.4h0.6c2-3.5,4.5-6.3,7.7-8.4S1384.9,624.6,1388.5,624.6z"/>
			<path class="st0" d="M1427.6,675.6c3.1,0,6.1-0.5,9.2-1.4v9.4c-1.4,0.6-3.2,1.1-5.4,1.5c-2.2,0.4-4.5,0.6-6.8,0.6
				c-11.9,0-17.8-6.3-17.8-18.8v-31.8h-8.1v-5.5l8.6-4.6l4.3-12.5h7.7v13.1h16.8v9.5h-16.8v31.6c0,3,0.8,5.3,2.3,6.7
				C1423.2,674.9,1425.2,675.6,1427.6,675.6z"/>
			<path class="st0" d="M1500.7,685.8c-8.9,0-15.7-2.6-20.3-7.8c-4.6-5.2-7-12.7-7-22.4c0-9.9,2.4-17.5,7.3-22.9
				c4.9-5.3,11.9-8,21-8c6.2,0,11.8,1.2,16.8,3.5l-3.8,10.1c-5.3-2.1-9.7-3.1-13.1-3.1c-10.2,0-15.3,6.8-15.3,20.3
				c0,6.6,1.3,11.6,3.8,14.9s6.3,5,11.2,5c5.6,0,10.9-1.4,15.8-4.2v10.9c-2.2,1.3-4.6,2.3-7.2,2.8
				C1507.4,685.5,1504.4,685.8,1500.7,685.8z"/>
			<path class="st0" d="M1583.3,655.1c0,9.6-2.5,17.2-7.4,22.6s-11.8,8.1-20.6,8.1c-5.5,0-10.4-1.2-14.6-3.7
				c-4.2-2.5-7.5-6.1-9.8-10.7c-2.3-4.7-3.4-10.1-3.4-16.2c0-9.6,2.5-17,7.4-22.4c4.9-5.4,11.8-8.1,20.7-8.1
				c8.5,0,15.3,2.7,20.3,8.2S1583.3,645.8,1583.3,655.1z M1540.4,655.1c0,13.6,5,20.4,15.1,20.4c10,0,14.9-6.8,14.9-20.4
				c0-13.5-5-20.2-15-20.2c-5.3,0-9.1,1.7-11.4,5.2C1541.6,643.6,1540.4,648.6,1540.4,655.1z"/>
			<path class="st0" d="M1649.6,684.7h-12.6v-36.3c0-4.6-0.9-7.9-2.7-10.2c-1.8-2.2-4.7-3.4-8.7-3.4c-5.3,0-9.2,1.6-11.6,4.7
				c-2.5,3.1-3.7,8.4-3.7,15.7v29.4h-12.5v-59h9.8l1.8,7.7h0.6c1.8-2.8,4.3-5,7.6-6.5c3.3-1.5,6.9-2.3,10.9-2.3
				c14.2,0,21.2,7.2,21.2,21.6V684.7z"/>
			<path class="st0" d="M1689.1,675.6c3.1,0,6.1-0.5,9.2-1.4v9.4c-1.4,0.6-3.2,1.1-5.4,1.5c-2.2,0.4-4.5,0.6-6.8,0.6
				c-11.9,0-17.8-6.3-17.8-18.8v-31.8h-8.1v-5.5l8.6-4.6l4.3-12.5h7.7v13.1h16.8v9.5h-16.8v31.6c0,3,0.8,5.3,2.3,6.7
				C1684.6,674.9,1686.6,675.6,1689.1,675.6z"/>
			<path class="st0" d="M1746.9,684.7l-2.5-8.2h-0.4c-2.8,3.6-5.7,6-8.6,7.3s-6.6,1.9-11.1,1.9c-5.8,0-10.3-1.6-13.6-4.7
				c-3.3-3.1-4.9-7.6-4.9-13.3c0-6.1,2.3-10.7,6.8-13.8c4.5-3.1,11.4-4.8,20.6-5.1l10.2-0.3v-3.1c0-3.8-0.9-6.6-2.6-8.5
				c-1.8-1.9-4.5-2.8-8.2-2.8c-3,0-5.9,0.4-8.7,1.3s-5.4,1.9-8,3.1l-4.1-9c3.2-1.7,6.7-2.9,10.5-3.8c3.8-0.9,7.4-1.3,10.8-1.3
				c7.5,0,13.2,1.6,17,4.9c3.8,3.3,5.7,8.4,5.7,15.4v39.7H1746.9z M1728.2,676.2c4.6,0,8.2-1.3,11-3.8c2.8-2.5,4.1-6.1,4.1-10.7
				v-5.1l-7.6,0.3c-5.9,0.2-10.2,1.2-12.9,3c-2.7,1.8-4,4.5-4,8.1c0,2.6,0.8,4.7,2.3,6.1C1722.8,675.4,1725.1,676.2,1728.2,676.2z"
				/>
			<path class="st0" d="M1797.2,685.8c-8.9,0-15.7-2.6-20.3-7.8c-4.6-5.2-7-12.7-7-22.4c0-9.9,2.4-17.5,7.3-22.9
				c4.9-5.3,11.9-8,21-8c6.2,0,11.8,1.2,16.8,3.5l-3.8,10.1c-5.3-2.1-9.7-3.1-13.1-3.1c-10.2,0-15.3,6.8-15.3,20.3
				c0,6.6,1.3,11.6,3.8,14.9c2.5,3.3,6.3,5,11.2,5c5.6,0,10.9-1.4,15.8-4.2v10.9c-2.2,1.3-4.6,2.3-7.2,2.8
				C1803.9,685.5,1800.8,685.8,1797.2,685.8z"/>
			<path class="st0" d="M1849.4,675.6c3.1,0,6.1-0.5,9.2-1.4v9.4c-1.4,0.6-3.2,1.1-5.4,1.5s-4.5,0.6-6.8,0.6
				c-11.9,0-17.8-6.3-17.8-18.8v-31.8h-8.1v-5.5l8.6-4.6l4.3-12.5h7.7v13.1h16.8v9.5h-16.8v31.6c0,3,0.8,5.3,2.3,6.7
				C1845,674.9,1847,675.6,1849.4,675.6z"/>
			<path class="st0" d="M1910,667.9c0,5.8-2.1,10.2-6.3,13.3c-4.2,3.1-10.2,4.6-18,4.6c-7.9,0-14.2-1.2-18.9-3.6v-10.8
				c6.9,3.2,13.4,4.8,19.4,4.8c7.7,0,11.6-2.3,11.6-7c0-1.5-0.4-2.7-1.3-3.7c-0.9-1-2.3-2-4.2-3.1c-2-1.1-4.7-2.3-8.2-3.6
				c-6.8-2.6-11.4-5.3-13.8-7.9s-3.6-6-3.6-10.2c0-5,2-9,6.1-11.8c4.1-2.8,9.6-4.2,16.6-4.2c6.9,0,13.5,1.4,19.7,4.2l-4.1,9.4
				c-6.4-2.6-11.7-3.9-16.1-3.9c-6.6,0-9.9,1.9-9.9,5.7c0,1.8,0.9,3.4,2.6,4.7s5.5,3,11.3,5.3c4.9,1.9,8.4,3.6,10.6,5.2
				c2.2,1.6,3.8,3.4,4.9,5.4C1909.5,662.6,1910,665,1910,667.9z"/>
		</g>
	</g>
</g>
</svg>
