<?xml version="1.0" encoding="utf-8"?>
<!-- Generator: Adobe Illustrator 22.1.0, SVG Export Plug-In . SVG Version: 6.00 Build 0)  -->
<svg version="1.1" id="Capa_1" xmlns="http://www.w3.org/2000/svg" xmlns:xlink="http://www.w3.org/1999/xlink" x="0px" y="0px"
	 viewBox="0 0 437.2 437.2" style="enable-background:new 0 0 437.2 437.2;" xml:space="preserve">
<g>
	<g>
		<g>
			<path d="M404.8,41.2h-300c-18,0-32.4,14.8-32.4,32.4V260c0,18,14.8,32.4,32.4,32.4h206.8l46.8,47.2c2,2,4.4,3.2,7.2,3.2
				c5.6,0,10.4-4.4,10.4-10.4v-40h28.8c18,0,32.4-14.8,32.4-32.4V73.6C437.2,55.6,422.4,41.2,404.8,41.2z M150.8,201.6
				c-16.4,0-30-13.6-30-30s13.6-30,30-30s30,13.6,30,30S167.6,201.6,150.8,201.6z M256,201.6c-16.4,0-30-13.6-30-30s13.6-30,30-30
				s30,13.6,30,30S272.4,201.6,256,201.6z M360.8,201.6c-16.4,0-30-13.6-30-30s13.6-30,30-30s30,13.6,30,30S377.2,201.6,360.8,201.6
				z"/>
			<path d="M54,260.8v-63.6H21.2C9.6,197.2,0,206.8,0,218.4v122.4c-0.4,12.4,9.2,22,21.2,22H40v26.4c0,3.6,3.2,6.8,6.8,6.8
				c2,0,3.6-0.8,4.8-2l30.8-30.8h136c11.6,0,21.2-9.6,21.2-21.2v-30.4H104.8C76.8,311.6,54,288.8,54,260.8z"/>
		</g>
	</g>
</g>
</svg>
