<?xml version="1.0" encoding="utf-8"?>
<!-- Generator: Adobe Illustrator 22.1.0, SVG Export Plug-In . SVG Version: 6.00 Build 0)  -->
<svg version="1.1" id="Capa_1" xmlns="http://www.w3.org/2000/svg" xmlns:xlink="http://www.w3.org/1999/xlink" x="0px" y="0px"
	 viewBox="0 0 497 497" style="enable-background:new 0 0 497 497;" xml:space="preserve">
<g>
	<g>
		<g>
			<path style="fill:#ffffff;" d="M147.2,266.6l101.3,148.8l101.3-148.8L248.5,100.2L147.2,266.6z M248.5,358.5l-45.1-66.3l45.1,11.7l45.1-11.7
				L248.5,358.5z M248.5,270.9L191.1,256l57.4-94.3l57.4,94.3L248.5,270.9z"/>
			<path style="fill:#ffffff;" d="M384.8,319.7l29.3,12.8c4.5-10.3,8.4-20.8,11.8-31.5l-30.5-9.6C392.4,301,388.8,310.5,384.8,319.7z"/>
			<path style="fill:#ffffff;" d="M403,262.1l31.4,6.3c2.2-11,3.8-22.1,4.8-33.3l-31.9-2.9C406.4,242.2,404.9,252.2,403,262.1z"/>
			<path style="fill:#ffffff;" d="M424.5,63.4c-49,0.1-96.9-14.4-137.6-41.6L254.2,0h-11.5l-32.6,21.8C169.4,49,121.5,63.5,72.5,63.4h-16v142.7
				c0.2,124,72.6,236.4,185.4,287.9l6.6,3l6.6-3c60.7-27.4,111.1-73.4,143.9-131.4l-27.8-15.9c-28.3,49.9-71.1,90.1-122.7,115.1
				c-97.8-47.7-159.9-146.9-160-255.7V95c49.8-2.8,98-18.9,139.4-46.6l20.6-13.7l20.6,13.7C310.5,76,358.7,92.1,408.5,95v106.7h32
				V63.4H424.5z"/>
		</g>
	</g>
</g>
</svg>
